# xmcd
#
# Track frame offsets: 
#        150
#        15356
#        30916
#        56570
#        77318
#        94080
#        118668
#        141689
#        165066
#        183293
#        206119
#
# Disc length: 2863 seconds
#
# Revision: 0
# Processed by: cddbd v1.5.2PL0 Copyright (c) Steve Scherf et al.
# Submitted via: ExactAudioCopy v1.0b4
#
DISCID=7f0b2d0b
DTITLE=Lefthand Freddy - Soul Strings
DYEAR=2013
DGENRE=Blues
TTITLE0=Believe I Need Some Tonight
TTITLE1=Baby Jealousy
TTITLE2=TV Blues
TTITLE3=Northern Girl
TTITLE4=The Waterman
TTITLE5=Hey Pretty Mama
TTITLE6=B's Boogie Scratch
TTITLE7=Anny's Song
TTITLE8=Hey G
TTITLE9=Cause I'm Leaving
TTITLE10=Blind Blake's Breakdown
EXTD=
EXTT0=
EXTT1=
EXTT2=
EXTT3=
EXTT4=
EXTT5=
EXTT6=
EXTT7=
EXTT8=
EXTT9=
EXTT10=
PLAYORDER=
